<svg width="26" height="26" viewBox="0 0 26 26" fill="none" xmlns="http://www.w3.org/2000/svg">
<g id="Buy">
<g id="Iconly/Two-tone/Buy">
<g id="Buy_2">
<path id="Stroke-1" fill-rule="evenodd" clip-rule="evenodd" d="M8.04056 21.472C8.49772 21.472 8.86931 21.8436 8.86931 22.3007C8.86931 22.7579 8.49772 23.1284 8.04056 23.1284C7.58339 23.1284 7.21289 22.7579 7.21289 22.3007C7.21289 21.8436 7.58339 21.472 8.04056 21.472Z" stroke="#6D3C2C" stroke-width="1.5" stroke-linecap="round" stroke-linejoin="round"/>
<path id="Stroke-3" fill-rule="evenodd" clip-rule="evenodd" d="M20.2311 21.472C20.6883 21.472 21.0598 21.8436 21.0598 22.3007C21.0598 22.7579 20.6883 23.1284 20.2311 23.1284C19.7739 23.1284 19.4023 22.7579 19.4023 22.3007C19.4023 21.8436 19.7739 21.472 20.2311 21.472Z" stroke="#6D3C2C" stroke-width="1.5" stroke-linecap="round" stroke-linejoin="round"/>
<path id="Stroke-5" d="M2.979 3.52083L5.23234 3.91083L6.27559 16.3399C6.36009 17.3528 7.20617 18.1307 8.22234 18.1307H20.0437C21.0143 18.1307 21.8377 17.4178 21.9774 16.4558L23.0055 9.35133C23.1323 8.47491 22.453 7.69058 21.5679 7.69058H5.59417" stroke="#6D3C2C" stroke-width="2" stroke-linecap="round" stroke-linejoin="round"/>
<path id="Stroke-7" d="M15.3022 11.6946H18.3063" stroke="#6D3C2C" stroke-linecap="round" stroke-linejoin="round"/>
</g>
</g>
</g>
</svg>
