<svg width="18" height="18" viewBox="0 0 18 18" fill="none" xmlns="http://www.w3.org/2000/svg">
<g id="Discount">
<g id="Iconly/Two-tone/Discount">
<g id="Discount_2">
<path id="Stroke-1" fill-rule="evenodd" clip-rule="evenodd" d="M3.5956 5.29184C3.5956 4.35509 4.35535 3.59534 5.29135 3.59534H6.0631C6.5101 3.59534 6.93985 3.41834 7.25785 3.10259L7.7971 2.56259C8.45785 1.89884 9.53185 1.89584 10.1956 2.55659L10.2024 2.56259L10.7424 3.10259C11.0596 3.41834 11.4894 3.59534 11.9371 3.59534H12.7081C13.6449 3.59534 14.4046 4.35509 14.4046 5.29184V6.06209C14.4046 6.51059 14.5816 6.93959 14.8974 7.25759L15.4374 7.79759C16.1011 8.45834 16.1049 9.53159 15.4441 10.1961L15.4374 10.2028L14.8974 10.7428C14.5816 11.0593 14.4046 11.4898 14.4046 11.9368V12.7086C14.4046 13.6453 13.6449 14.4043 12.7081 14.4043H11.9371C11.4894 14.4043 11.0596 14.5821 10.7424 14.8978L10.2024 15.4371C9.54235 16.1016 8.46835 16.1046 7.80385 15.4438C7.8016 15.4416 7.79935 15.4393 7.7971 15.4371L7.25785 14.8978C6.93985 14.5821 6.5101 14.4043 6.0631 14.4043H5.29135C4.35535 14.4043 3.5956 13.6453 3.5956 12.7086V11.9368C3.5956 11.4898 3.41785 11.0593 3.1021 10.7428L2.56285 10.2028C1.89835 9.54209 1.89535 8.46809 2.5561 7.80434L2.56285 7.79759L3.1021 7.25759C3.41785 6.93959 3.5956 6.51059 3.5956 6.06209V5.29184Z" stroke="#6D3C2C" stroke-linecap="round" stroke-linejoin="round"/>
<path id="Stroke-3" d="M7.07227 10.9271L10.9273 7.07211" stroke="#6D3C2C" stroke-linecap="round" stroke-linejoin="round"/>
<path id="Fill-5" d="M10.9248 11.4918C10.7748 11.4918 10.6323 11.4318 10.5273 11.3268C10.4748 11.2743 10.4373 11.2068 10.4073 11.1393C10.3773 11.0718 10.3623 11.005 10.3623 10.9293C10.3623 10.8543 10.3773 10.7793 10.4073 10.7118C10.4373 10.6443 10.4748 10.5843 10.5273 10.5318C10.7373 10.3218 11.1123 10.3218 11.3223 10.5318C11.3748 10.5843 11.4198 10.6443 11.4498 10.7118C11.4723 10.7793 11.4873 10.8543 11.4873 10.9293C11.4873 11.005 11.4723 11.0718 11.4498 11.1393C11.4198 11.2068 11.3748 11.2743 11.3223 11.3268C11.2173 11.4318 11.0748 11.4918 10.9248 11.4918Z" fill="#6D3C2C"/>
<path id="Fill-7" d="M7.06982 7.63708C6.99482 7.63708 6.92732 7.62133 6.85982 7.59133C6.79232 7.56133 6.72482 7.52457 6.67232 7.47207C6.61982 7.41207 6.58232 7.35207 6.55232 7.28457C6.52232 7.21632 6.50732 7.14957 6.50732 7.07457C6.50732 6.99882 6.52232 6.92457 6.55232 6.85707C6.58232 6.78957 6.61982 6.72207 6.67232 6.67707C6.88982 6.46632 7.25732 6.46632 7.46732 6.67707C7.57232 6.78132 7.63232 6.92457 7.63232 7.07457C7.63232 7.14957 7.62482 7.21632 7.59482 7.28457C7.56482 7.35207 7.51982 7.41207 7.46732 7.47207C7.41482 7.52457 7.35482 7.56133 7.28732 7.59133C7.21982 7.62133 7.14482 7.63708 7.06982 7.63708Z" fill="#6D3C2C"/>
</g>
</g>
</g>
</svg>
