<svg width="52" height="51" viewBox="0 0 52 51" fill="none" xmlns="http://www.w3.org/2000/svg">
<g id="Layer_1" clip-path="url(#clip0_21_3041)">
<path id="Vector" d="M4.79226 20.8431C5.59452 20.8431 6.39678 20.8339 7.19904 20.8431C7.90026 20.8523 8.24321 21.1707 8.33048 21.8642C8.40397 22.4474 8.51115 23.0307 8.52646 23.6155C8.54024 24.1375 8.75458 24.2707 9.24604 24.2691C13.9724 24.2538 18.6987 24.2599 23.425 24.2599C24.708 24.2599 25.9925 24.2599 27.2755 24.2599C29.2475 24.2722 30.6209 25.9209 30.3284 27.8666C29.9059 30.6849 29.5109 33.5063 29.1036 36.3276C29.0722 36.7032 28.9423 37.0639 28.727 37.3732C28.4315 37.7468 28.5417 38.0055 28.779 38.356C29.1911 38.9629 29.4561 39.6574 29.5532 40.3845C29.6502 41.1116 29.5766 41.8512 29.3382 42.5449C29.0997 43.2386 28.703 43.8673 28.1794 44.3811C27.6559 44.8949 27.0198 45.2797 26.3217 45.5051C24.5059 46.0822 22.8325 45.7225 21.4852 44.3646C20.1379 43.0068 19.7291 41.3473 20.3185 39.4889C20.5099 38.8872 20.516 38.8888 19.9067 38.8888H17.5519C16.9395 38.8888 16.9395 38.8888 17.1324 39.4491C17.9929 42.0086 16.6471 44.729 14.0703 45.5189C12.1565 46.1037 10.4357 45.6613 9.10213 44.1702C7.7686 42.6792 7.4731 40.9064 8.30751 39.048C8.52186 38.5673 8.48358 38.3116 8.09776 37.9764C7.24038 37.2247 7.21742 36.1501 7.10412 35.1244C6.69584 31.4606 6.29574 27.7962 5.90379 24.1313C5.85633 23.6874 5.65882 23.519 5.21176 23.5389C4.3207 23.5665 3.42811 23.5512 2.53704 23.5389C2.01649 23.5389 1.54339 23.3965 1.2234 22.948C1.08398 22.7605 0.998587 22.5383 0.976456 22.3057C0.954325 22.0731 0.996311 21.8389 1.09786 21.6284C1.19027 21.393 1.35273 21.1916 1.56329 21.0514C1.77384 20.9112 2.02235 20.839 2.27524 20.8446C3.11272 20.8232 3.95018 20.8446 4.78919 20.8446L4.79226 20.8431ZM18.3083 26.9665H9.69158C8.95515 26.9665 8.8985 27.0323 8.98271 27.7702C9.08222 28.655 9.1894 29.5398 9.28891 30.4247C9.47876 32.1239 9.66658 33.8232 9.85234 35.5224C9.90287 35.9817 10.0575 36.2618 10.6179 36.2603C15.6662 36.2429 20.7135 36.2429 25.7598 36.2603C26.2084 36.2603 26.4381 36.1072 26.5039 35.6357C26.8668 33.0072 27.2618 30.3818 27.6353 27.7549C27.7287 27.092 27.6124 26.9741 26.9249 26.9726C24.0558 26.9644 21.1846 26.9614 18.3113 26.9634L18.3083 26.9665ZM12.6251 38.9607C11.4308 38.9607 10.5643 39.8302 10.5689 41.0166C10.5681 41.2896 10.6211 41.56 10.725 41.8123C10.8289 42.0647 10.9816 42.2941 11.1743 42.4874C11.367 42.6806 11.596 42.834 11.8481 42.9386C12.1002 43.0432 12.3705 43.0971 12.6434 43.0971C12.9165 43.0947 13.1864 43.0384 13.4377 42.9314C13.689 42.8245 13.9167 42.669 14.1077 42.4739C14.2988 42.2787 14.4494 42.0478 14.551 41.7943C14.6525 41.5408 14.703 41.2698 14.6996 40.9967C14.7011 39.8134 13.8254 38.9531 12.6281 38.9577L12.6251 38.9607ZM24.8335 38.9607C23.6393 38.9607 22.7682 39.8241 22.7712 41.0075C22.7688 41.2802 22.8203 41.5508 22.9227 41.8036C23.0252 42.0564 23.1766 42.2865 23.3682 42.4807C23.5598 42.6749 23.7879 42.8293 24.0394 42.935C24.2908 43.0408 24.5607 43.0959 24.8335 43.0971C25.3845 43.0918 25.911 42.8691 26.2984 42.4774C26.6859 42.0857 26.9028 41.5568 26.902 41.0059C26.9066 39.8241 26.0293 38.9577 24.8366 38.9577L24.8335 38.9607Z" fill="#6D3C2C"/>
<path id="Vector_2" d="M41.6906 25.0636C39.9773 25.0636 38.2656 25.0636 36.5524 25.0636C35.9305 25.0689 35.3138 24.9502 34.7384 24.7146C34.1629 24.4789 33.6401 24.1309 33.2007 23.6909C32.7612 23.2509 32.4139 22.7278 32.1789 22.1521C31.9439 21.5764 31.8261 20.9596 31.8322 20.3378C31.823 17.5012 31.8322 14.6645 31.8322 11.8278C31.8322 10.1531 32.5242 8.83041 33.893 7.87363C34.19 7.66696 34.2911 7.51847 34.0997 7.14953C33.0417 5.11503 33.5271 2.68098 35.2372 1.28025C36.0805 0.574168 37.1443 0.185463 38.2441 0.181548C39.344 0.177634 40.4106 0.558756 41.2588 1.25881C41.614 1.54355 41.8008 1.52671 42.1468 1.25881C42.997 0.561176 44.0644 0.182934 45.1642 0.189645C46.264 0.196355 47.3268 0.587595 48.1684 1.29556C49.877 2.70547 50.3501 5.12269 49.2937 7.16944C49.1207 7.50316 49.1789 7.65625 49.4713 7.85679C50.8844 8.82888 51.5719 10.1867 51.5688 11.9028C51.5688 14.6844 51.5688 17.4675 51.5688 20.2506C51.5688 23.0337 49.5218 25.0651 46.7261 25.0728C45.0497 25.0666 43.3747 25.0636 41.6906 25.0636ZM40.3984 16.0744C40.3984 14.1486 40.3861 12.2228 40.406 10.2985C40.406 9.82393 40.2897 9.62645 39.7783 9.64329C38.7816 9.6785 37.7879 9.64329 36.7836 9.65554C35.3306 9.66779 34.4488 10.545 34.4442 12.0008C34.437 14.7104 34.437 17.42 34.4442 20.1296C34.4442 21.5564 35.3306 22.4397 36.7407 22.4565C37.7573 22.4688 38.7739 22.4397 39.789 22.4688C40.2636 22.4825 40.4014 22.3157 40.4014 21.8564C40.3861 19.9214 40.3984 17.9972 40.3984 16.0744ZM43.0011 16.0499C43.0011 17.9926 43.0118 19.9367 42.9935 21.8794C42.9935 22.3188 43.1328 22.478 43.5783 22.4672C44.6118 22.4428 45.6468 22.4672 46.6802 22.4565C48.0581 22.4366 48.9477 21.5472 48.9538 20.1602C48.9661 17.4323 48.9661 14.7048 48.9538 11.9778C48.9538 10.5557 48.0597 9.68156 46.6389 9.66166C45.6774 9.65248 44.7144 9.66166 43.7513 9.66166C43.0042 9.66166 43.0027 9.66166 43.0011 10.3888V16.0499ZM39.0158 7.04237C39.3925 7.04237 39.6956 7.04237 39.9988 7.04237C40.1871 7.04237 40.3831 7.00716 40.3815 6.76988C40.3723 5.90189 40.5346 5.02012 40.2284 4.16743C40.075 3.77473 39.8091 3.43601 39.464 3.19367C39.119 2.95132 38.7101 2.81612 38.2886 2.80498C37.8769 2.81444 37.4761 2.93984 37.1325 3.16676C36.7888 3.39368 36.5161 3.71293 36.3457 4.08783C36.1786 4.46472 36.129 4.8832 36.2033 5.28871C36.2776 5.69422 36.4723 6.06794 36.7622 6.36115C37.4113 7.05462 38.2411 7.07299 39.0158 7.04237ZM44.2964 7.04237C44.7756 7.04237 45.2563 7.07452 45.7279 6.93062C46.1379 6.80015 46.5001 6.55104 46.7685 6.21479C47.0369 5.87854 47.1996 5.47025 47.236 5.04155C47.3018 4.2501 46.7659 3.36527 46.0111 3.0147C45.629 2.83354 45.2004 2.77441 44.7835 2.84535C44.3666 2.91629 43.9816 3.11385 43.6809 3.41119C42.9873 4.05721 42.9935 4.88847 42.9996 5.73503C43.0134 7.04238 43.0057 7.04237 44.2933 7.04237H44.2964Z" fill="#6D3C2C"/>
<path id="Vector_3" d="M26.3063 50.7682C20.6415 50.7682 14.9613 50.7115 9.28884 50.7896C5.41685 50.8416 1.6459 47.9942 1.03655 43.7155C1.00286 43.4505 0.987521 43.1835 0.990627 42.9164C0.990627 37.5829 0.990627 32.2494 0.990627 26.9159C0.990627 26.1505 1.32897 25.6392 1.93373 25.4785C2.12678 25.4213 2.33041 25.4094 2.52882 25.4435C2.72724 25.4777 2.91511 25.557 3.07794 25.6754C3.24076 25.7938 3.37415 25.9481 3.46778 26.1263C3.56141 26.3045 3.61276 26.5019 3.61787 26.7032C3.64237 27.2022 3.62554 27.7028 3.62554 28.2019C3.62554 32.8567 3.62554 37.512 3.62554 42.1678C3.62554 43.0618 3.70821 43.9513 4.10015 44.7703C5.18872 47.0666 7.05047 48.1152 9.54453 48.1167C18.2316 48.1167 26.9193 48.1167 35.6074 48.1167C38.1045 48.1167 40.6016 48.1167 43.0987 48.1167C44.8166 48.1167 46.3139 47.5687 47.4959 46.2659C48.537 45.1178 48.9335 43.7431 48.9366 42.2352C48.9366 38.2749 48.9366 34.3161 48.9366 30.3558C48.924 30.107 48.9426 29.8575 48.9917 29.6133C49.0793 29.3201 49.2651 29.066 49.518 28.8937C49.7709 28.7214 50.0754 28.6414 50.3804 28.6672C50.6847 28.7007 50.9684 28.8375 51.184 29.0548C51.3997 29.2721 51.5343 29.5567 51.5654 29.8613C51.5776 29.9853 51.5746 30.1108 51.5746 30.2364C51.5746 34.4095 51.5868 38.5841 51.5746 42.7572C51.5577 47.1048 47.9261 50.7437 43.5856 50.7544C37.8304 50.7789 32.0692 50.7682 26.3063 50.7682Z" fill="#6D3C2C"/>
<path id="Vector_4" d="M15.3979 13.0926C11.705 13.0926 8.01218 13.1018 4.31932 13.0819C3.79264 13.0819 3.59514 13.1982 3.61504 13.76C3.65791 14.9173 3.63035 16.0793 3.62728 17.2381C3.62728 18.2056 3.08377 18.8501 2.29069 18.8379C1.49761 18.8256 0.989308 18.1964 0.987777 17.2595C0.987777 14.2453 0.980122 11.2311 0.987777 8.21527C1.00955 6.33488 1.68134 4.51994 2.88915 3.07844C4.09695 1.63695 5.76638 0.657704 7.61411 0.306889C7.98094 0.234887 8.35339 0.195441 8.72716 0.189013C15.8281 0.181869 22.9291 0.181869 30.03 0.189013C30.866 0.189013 31.408 0.660515 31.4554 1.39226C31.5075 2.21586 30.9839 2.79299 30.154 2.82514C29.9581 2.82514 29.7621 2.82514 29.5646 2.82514C22.8923 2.82514 16.2201 2.82514 9.54781 2.82514C7.72435 2.82514 6.15503 3.39921 4.94551 4.81525C4.06057 5.85164 3.68239 7.07326 3.63493 8.41122C3.61502 8.94549 3.63494 9.48282 3.62575 10.0156C3.61657 10.3324 3.73445 10.484 4.06056 10.461C4.21367 10.4488 4.38208 10.461 4.54284 10.461H26.1657C26.3975 10.4534 26.6295 10.458 26.8608 10.4748C27.1841 10.5078 27.4832 10.6609 27.699 10.9038C27.9147 11.1468 28.0314 11.4619 28.0259 11.7867C28.0292 12.1116 27.9104 12.4258 27.6928 12.6671C27.4753 12.9084 27.1751 13.0592 26.8516 13.0895C26.656 13.1035 26.4597 13.1076 26.2637 13.1018L15.3979 13.0926Z" fill="#6D3C2C"/>
<path id="Vector_5" d="M38.9741 36.5159C37.7247 36.5159 36.4754 36.5312 35.2276 36.5159C34.5432 36.5037 34.0533 36.1194 33.8941 35.5515C33.8149 35.2837 33.8218 34.9977 33.9138 34.7341C34.0058 34.4704 34.1783 34.2422 34.407 34.0819C34.6735 33.8975 34.9925 33.804 35.3164 33.8155C37.7783 33.8155 40.2402 33.8063 42.7021 33.8155C43.5932 33.8155 44.1903 34.3804 44.1934 35.158C44.1934 35.9617 43.5947 36.5098 42.6623 36.519C41.4375 36.5297 40.2004 36.519 38.9695 36.519L38.9741 36.5159Z" fill="#6D3C2C"/>
<path id="Vector_6" d="M39.005 41.6702C37.7557 41.6702 36.5079 41.6702 35.2601 41.6702C34.3812 41.6702 33.85 41.1528 33.853 40.3415C33.8561 39.5301 34.392 39.0372 35.28 39.0341C37.7592 39.0341 40.2375 39.0341 42.7147 39.0341C43.6333 39.0341 44.1983 39.5546 44.1921 40.3614C44.186 41.1681 43.6195 41.6672 42.6963 41.6702C41.4654 41.6748 40.2344 41.6702 39.005 41.6702Z" fill="#6D3C2C"/>
<path id="Vector_7" d="M9.12657 6.40561C9.12175 6.23133 9.15294 6.05793 9.21818 5.89625C9.28343 5.73457 9.38134 5.58809 9.50578 5.46597C9.63022 5.34384 9.7785 5.2487 9.94139 5.18648C10.1043 5.12427 10.2783 5.09632 10.4524 5.10439C10.6266 5.10224 10.7994 5.13536 10.9605 5.20177C11.1215 5.26818 11.2674 5.36649 11.3894 5.49079C11.5115 5.61508 11.6071 5.76279 11.6705 5.92501C11.7339 6.08723 11.7638 6.26061 11.7584 6.4347C11.7597 6.60901 11.7258 6.78179 11.6587 6.94267C11.5916 7.10355 11.4926 7.2492 11.3678 7.37088C11.2429 7.49256 11.0948 7.58776 10.9322 7.65075C10.7697 7.71374 10.5961 7.74323 10.4218 7.73745C10.2475 7.74124 10.0744 7.7091 9.91306 7.64302C9.75176 7.57695 9.60581 7.47837 9.48428 7.35341C9.36276 7.22846 9.26827 7.07981 9.20673 6.91675C9.14518 6.75368 9.11791 6.57969 9.12657 6.40561Z" fill="#6D3C2C"/>
<path id="Vector_8" d="M13.8257 6.39174C13.8222 6.21754 13.8548 6.0445 13.9214 5.88348C13.988 5.72246 14.0872 5.57695 14.2127 5.45606C14.3382 5.33517 14.4873 5.24152 14.6507 5.18099C14.8141 5.12046 14.9883 5.09435 15.1623 5.1043C15.3366 5.10461 15.509 5.13994 15.6694 5.20818C15.8298 5.27642 15.9749 5.37618 16.096 5.50154C16.2171 5.62691 16.3117 5.77532 16.3744 5.93797C16.437 6.10062 16.4663 6.27419 16.4606 6.44839C16.4589 6.62271 16.4222 6.79491 16.3526 6.95477C16.2831 7.11463 16.1821 7.25888 16.0557 7.37897C15.9293 7.49906 15.7801 7.59253 15.6169 7.65383C15.4537 7.71513 15.2798 7.74302 15.1056 7.73583C14.9314 7.73806 14.7586 7.70432 14.598 7.63671C14.4375 7.56911 14.2926 7.46909 14.1724 7.34293C14.0523 7.21677 13.9595 7.06718 13.8998 6.90351C13.8401 6.73984 13.8149 6.56562 13.8257 6.39174Z" fill="#6D3C2C"/>
<path id="Vector_9" d="M19.4229 5.10435C19.5972 5.09979 19.7706 5.13049 19.9327 5.19462C20.0948 5.25874 20.2423 5.35496 20.3662 5.47749C20.4902 5.60002 20.5882 5.74635 20.6542 5.90768C20.7202 6.069 20.7529 6.242 20.7503 6.41629C20.7535 6.59044 20.7214 6.76343 20.6562 6.92493C20.591 7.08644 20.4939 7.23315 20.3707 7.35631C20.2476 7.47948 20.1008 7.57656 19.9393 7.64177C19.7778 7.70699 19.6048 7.73899 19.4306 7.73588C19.2565 7.74336 19.0828 7.7148 18.9203 7.65198C18.7578 7.58917 18.61 7.49346 18.4862 7.37085C18.3625 7.24825 18.2654 7.10139 18.201 6.9395C18.1367 6.77761 18.1065 6.60417 18.1124 6.43006C18.1038 6.25499 18.1316 6.08004 18.1942 5.91632C18.2569 5.7526 18.3528 5.60368 18.4761 5.47902C18.5993 5.35436 18.7471 5.25668 18.9101 5.19218C19.0731 5.12768 19.2478 5.09777 19.4229 5.10435Z" fill="#6D3C2C"/>
<path id="Vector_10" d="M35.1573 31.2635C34.9874 31.2658 34.8188 31.2338 34.6616 31.1693C34.5044 31.1048 34.3619 31.0092 34.2426 30.8882C34.1233 30.7672 34.0297 30.6234 33.9675 30.4653C33.9053 30.3072 33.8756 30.1382 33.8804 29.9684C33.8864 29.6262 34.0267 29.3001 34.271 29.0604C34.5153 28.8207 34.8441 28.6866 35.1864 28.6871C35.5288 28.6935 35.855 28.8347 36.094 29.08C36.333 29.3253 36.4657 29.655 36.4632 29.9975C36.4642 30.1674 36.4307 30.3357 36.3649 30.4924C36.2991 30.649 36.2023 30.7907 36.0803 30.909C35.9583 31.0273 35.8136 31.1196 35.655 31.1806C35.4964 31.2415 35.3271 31.2697 35.1573 31.2635Z" fill="#6D3C2C"/>
</g>
<defs>
<clipPath id="clip0_21_3041">
<rect width="50.6115" height="50.6115" fill="white" transform="translate(0.978516 0.17804)"/>
</clipPath>
</defs>
</svg>
