<svg width="51" height="51" viewBox="0 0 51 51" fill="none" xmlns="http://www.w3.org/2000/svg">
<g id="Layer_1" clip-path="url(#clip0_21_3073)">
<path id="Vector" d="M25.824 0.17804C32.9513 4.28588 40.0747 8.39372 47.1941 12.5016C48.4934 13.2499 48.4993 13.2425 48.4993 14.7244V48.2436C48.4993 49.0261 48.4993 49.0261 49.2729 49.0261C49.702 49.0261 50.1312 49.0379 50.5588 49.0261C50.8795 49.0157 50.9968 49.1521 50.9924 49.4707C50.9671 51.0652 51.1884 50.7777 49.754 50.7777C33.5928 50.7866 17.4315 50.7866 1.27031 50.7777C0.379395 50.7777 0.379395 50.7777 0.379395 49.8886V49.6915C0.379395 49.0305 0.388303 49.0231 1.03719 49.0231C3.64262 49.0231 6.24855 49.0231 8.85498 49.0231C8.96931 49.0231 9.08513 49.0231 9.20095 49.0231C9.46526 49.035 9.59296 48.9579 9.43111 48.6838C9.4207 48.6704 9.41267 48.6554 9.40735 48.6393C9.19205 47.4449 8.3828 47.3352 7.34934 47.393C5.94614 47.4701 4.97356 46.7099 4.67658 45.4665C4.62729 45.2253 4.60538 44.9792 4.61125 44.733C4.61125 43.0866 4.62313 41.4402 4.60086 39.7953C4.58897 39.1546 4.74837 38.5224 5.06264 37.9637C6.98257 34.4175 8.90102 30.8698 10.7571 27.2939C11.4223 26.0091 12.3726 25.4134 13.7996 25.4653C14.738 25.4994 15.6794 25.4579 16.6208 25.4771C17.0336 25.486 17.2148 25.363 17.2148 24.9185C17.2044 23.7329 17.0217 23.7878 18.367 23.7937C19.007 23.7937 19.0203 23.8115 19.0218 24.4694V37.405C19.0218 38.0807 19.0218 38.0807 19.7019 38.0822C19.8504 38.0822 19.9989 38.0748 20.1474 38.0822C20.4339 38.0985 20.5824 37.9814 20.5705 37.6821C20.5705 37.5176 20.5705 37.3531 20.5705 37.1886V20.9366C20.5454 20.442 20.6285 19.948 20.8141 19.4887C21.2699 18.5003 22.0361 17.9357 23.1349 17.9327C28.7586 17.9209 34.3817 17.9209 40.0044 17.9327C41.5056 17.9327 42.5703 19.0516 42.5717 20.6002C42.5717 26.1959 42.5693 31.7915 42.5643 37.3872C42.5643 37.8525 42.6653 38.0689 43.1672 38.183C44.3031 38.4408 44.9906 39.2203 45.0752 40.3643C45.2146 41.9714 45.2106 43.5876 45.0633 45.1939C44.9148 46.5972 43.8977 47.4049 42.4916 47.4167C41.5338 47.4167 40.5776 47.4316 39.6213 47.4167C39.2887 47.4093 39.0927 47.4938 39.0274 47.8391C38.9472 48.2451 38.7185 48.5934 38.5151 48.9431C38.6354 49.0913 38.7779 49.0305 38.8997 49.0305C41.3066 49.0305 43.7151 49.0231 46.122 49.0424C46.5601 49.0424 46.6848 48.9075 46.6833 48.4778C46.6744 37.2538 46.6744 26.0294 46.6833 14.8044C46.6833 14.4073 46.5096 14.2206 46.1963 14.0413C40.6785 10.8799 35.1638 7.71056 29.652 4.53336C28.4938 3.86798 27.3267 3.22039 26.1848 2.52982C25.8195 2.30902 25.5508 2.33718 25.1974 2.54168C20.6181 5.19034 16.0338 7.8301 11.4446 10.461C9.40141 11.6361 7.36567 12.8231 5.30914 13.9731C4.86368 14.2176 4.72855 14.5021 4.73004 14.9897C4.74489 20.9973 4.74786 27.0045 4.73895 33.0111C4.73895 33.1593 4.73895 33.3075 4.73895 33.4557C4.74638 33.5211 4.74236 33.5873 4.72706 33.6513C4.43009 34.3449 3.83615 33.8632 3.40108 33.9803C3.13084 34.0529 2.9096 33.9403 2.93039 33.5935C2.93039 33.4779 2.93039 33.3623 2.93039 33.2482C2.93039 26.796 2.92692 20.3443 2.91999 13.8931C2.91999 13.4203 3.06848 13.1625 3.48127 12.9239C10.6977 8.7805 17.9082 4.62623 25.1127 0.461084C25.2612 0.378097 25.3859 0.277328 25.5226 0.18545L25.824 0.17804ZM24.6836 39.8931H11.2308C9.79638 39.8931 8.362 39.8931 6.92466 39.8931C6.57126 39.8931 6.41684 40.0057 6.41981 40.3747C6.43317 41.8566 6.41981 43.3385 6.43169 44.8204C6.43169 45.3687 6.65887 45.6029 7.20381 45.6548C7.57948 45.6903 7.96258 45.6548 8.33974 45.6799C8.71689 45.7051 8.92032 45.5747 9.0495 45.1894C9.32523 44.3371 9.86703 43.5952 10.5956 43.0724C11.3242 42.5495 12.2014 42.273 13.0987 42.2834C13.9794 42.2885 14.8364 42.5678 15.5504 43.0824C16.2643 43.597 16.7994 44.3211 17.0811 45.1539C17.2162 45.5451 17.3929 45.6859 17.8146 45.6844C21.9356 45.6676 26.0571 45.6676 30.1791 45.6844C30.6112 45.6844 30.8042 45.5658 30.9453 45.1405C31.2953 44.107 32.0337 43.2494 33.0048 42.7485C33.9759 42.2476 35.1039 42.1425 36.1512 42.4553C36.8125 42.6446 37.4164 42.9946 37.9088 43.4742C38.4012 43.9537 38.7667 44.5476 38.9724 45.2028C39.0957 45.5644 39.2694 45.6918 39.6391 45.6814C40.5122 45.6577 41.3868 45.6814 42.2599 45.6711C43.0424 45.6636 43.2993 45.4028 43.2993 44.6337C43.2993 43.4482 43.2993 42.2627 43.2993 41.0771C43.2993 40.0606 43.139 39.899 42.1292 39.899L24.6836 39.8931ZM17.2088 32.737C17.2088 31.0921 17.1999 29.4472 17.2088 27.8022C17.2088 27.4021 17.0856 27.2495 16.6698 27.2584C15.5992 27.2821 14.5272 27.2747 13.4566 27.2584C13.2417 27.2427 13.0271 27.2927 12.8414 27.4018C12.6557 27.5108 12.5077 27.6738 12.4172 27.8689C10.6977 31.1291 8.97427 34.3863 7.24688 37.6406C7.04791 38.017 7.17115 38.0748 7.53346 38.0733C10.5655 38.0659 13.5976 38.06 16.6297 38.0733C17.1093 38.0733 17.2118 37.8911 17.2073 37.4628C17.1984 35.8964 17.2088 34.3167 17.2088 32.7385V32.737ZM26.5085 31.3588C27.7127 31.3588 28.9155 31.347 30.1182 31.3588C30.5117 31.3588 30.6854 31.2551 30.6795 30.8327C30.6607 29.5484 30.6607 28.2641 30.6795 26.9798C30.6795 26.5678 30.531 26.4374 30.1256 26.4404C27.7182 26.4522 25.3112 26.4522 22.9047 26.4404C22.5291 26.4404 22.3776 26.5515 22.3821 26.9472C22.4019 28.2463 22.4019 29.5459 22.3821 30.8461C22.3821 31.2373 22.5142 31.3618 22.8988 31.3558C24.1015 31.3484 25.3043 31.3603 26.5085 31.3603V31.3588ZM36.659 31.3588C37.8469 31.3588 39.0348 31.347 40.2227 31.3588C40.6206 31.3588 40.7869 31.2447 40.781 30.8268C40.7632 29.5425 40.7632 28.2582 40.781 26.9739C40.781 26.5545 40.6117 26.4389 40.2182 26.4404C37.8108 26.4522 35.4038 26.4522 32.9973 26.4404C32.6143 26.4404 32.4747 26.5619 32.4806 26.9531C32.4984 28.2522 32.4984 29.5524 32.4806 30.8535C32.4732 31.2521 32.6291 31.3603 33.0018 31.3558C34.2135 31.3484 35.4385 31.3603 36.659 31.3603V31.3588ZM26.5352 33.1741C25.3147 33.1741 24.0956 33.183 22.875 33.1741C22.5157 33.1741 22.3791 33.2897 22.3836 33.6587C22.4004 34.9747 22.4004 36.2906 22.3836 37.6065C22.3836 37.9814 22.532 38.0852 22.8795 38.0837C25.3028 38.0728 27.7281 38.0728 30.1553 38.0837C30.5815 38.0837 30.6899 37.9162 30.6839 37.5265C30.6691 36.2595 30.6646 34.9924 30.6839 33.7269C30.6914 33.2823 30.5147 33.1623 30.0974 33.1697C28.908 33.189 27.7216 33.1756 26.5352 33.1756V33.1741ZM36.5892 38.0748C37.8083 38.0748 39.0289 38.0659 40.2494 38.0748C40.6251 38.0748 40.784 37.9592 40.7795 37.5665C40.7647 36.2674 40.7647 34.9677 40.7795 33.6676C40.7795 33.269 40.6087 33.1638 40.2405 33.1653C37.8172 33.1741 35.3919 33.1741 32.9647 33.1653C32.6039 33.1653 32.4702 33.2838 32.4747 33.6513C32.491 34.951 32.4955 36.2506 32.4747 37.5502C32.4673 37.974 32.6232 38.0822 33.0241 38.0763C34.2134 38.063 35.4013 38.0748 36.5892 38.0748ZM36.5892 24.6413C37.8246 24.6413 39.06 24.6413 40.3014 24.6413C40.6281 24.6413 40.7884 24.542 40.7854 24.1968C40.7751 22.9801 40.7854 21.7635 40.7736 20.5468C40.7647 19.963 40.5315 19.7466 39.945 19.7451C37.6227 19.7377 35.3004 19.7451 32.9766 19.7362C32.6128 19.7362 32.4866 19.8637 32.491 20.2267C32.5059 21.5264 32.5103 22.8245 32.491 24.1241C32.4836 24.5465 32.6395 24.6562 33.0389 24.6487C34.2135 24.6295 35.4013 24.6428 36.5892 24.6413ZM26.4922 24.6413C27.6801 24.6413 28.8679 24.6235 30.0558 24.6502C30.5206 24.6606 30.6988 24.5287 30.6884 24.0412C30.6597 22.8082 30.6597 21.5733 30.6884 20.3364C30.6988 19.8489 30.5117 19.7229 30.0514 19.7273C27.8241 19.7451 25.5968 19.7273 23.3769 19.7362C22.6479 19.7362 22.4029 19.9778 22.3984 20.7128C22.3984 21.8479 22.4118 22.9831 22.388 24.1212C22.3791 24.545 22.5365 24.6517 22.9374 24.6458C24.1164 24.6295 25.3043 24.6428 26.4922 24.6428V24.6413ZM24.0169 49.0261H30.5503C31.4412 49.0261 31.4412 49.0261 31.1012 48.2451C31.056 48.1576 31.0197 48.0657 30.9928 47.971C30.9037 47.5145 30.6305 47.4034 30.1776 47.4064C26.2709 47.4241 22.3628 47.4375 18.4561 47.399C17.6513 47.3915 17.0351 47.4582 16.8821 48.3859C16.8663 48.4501 16.837 48.5102 16.796 48.5623C16.5228 48.9609 16.6876 49.035 17.093 49.032C19.4005 49.0187 21.7079 49.0261 24.0169 49.0261ZM15.522 46.5454C15.522 45.1316 14.4499 44.0439 13.0735 44.0632C12.747 44.0627 12.4238 44.1272 12.1227 44.2529C11.8215 44.3786 11.5485 44.5629 11.3195 44.7952C11.0906 45.0274 10.9103 45.3028 10.7893 45.6054C10.6682 45.9079 10.6088 46.2315 10.6145 46.5572C10.6153 47.2058 10.873 47.8278 11.3314 48.2875C11.7898 48.7472 12.4117 49.0074 13.0616 49.0113C14.4559 49.0261 15.5205 47.9576 15.522 46.5454ZM37.4 46.5217C37.4067 46.2006 37.349 45.8814 37.2303 45.5829C37.1116 45.2844 36.9343 45.0126 36.7087 44.7836C36.4832 44.5545 36.2141 44.3727 35.9171 44.249C35.6202 44.1253 35.3014 44.0621 34.9796 44.0632C34.6534 44.0616 34.3301 44.1243 34.0282 44.2476C33.7263 44.3708 33.4517 44.5523 33.2201 44.7816C32.9885 45.011 32.8046 45.2836 32.6787 45.5839C32.5528 45.8843 32.4875 46.2065 32.4866 46.532C32.4854 46.8574 32.5486 47.1799 32.6727 47.4808C32.7967 47.7817 32.9792 48.0553 33.2094 48.2856C33.4397 48.516 33.7133 48.6987 34.0146 48.8232C34.3158 48.9478 34.6387 49.0117 34.9648 49.0113C36.3517 49.0187 37.4059 47.9384 37.4 46.5217Z" fill="#6D3C2C"/>
<path id="Vector_2" d="M25.7029 15.5202C24.1854 15.5202 22.6693 15.5084 21.1518 15.5276C20.7256 15.5276 20.5682 15.3942 20.5697 14.963C20.5846 12.8735 20.5846 10.784 20.5697 8.69456C20.5593 8.54838 20.5931 8.40243 20.6666 8.27562C20.7402 8.1488 20.8503 8.04695 20.9825 7.98324C22.4308 7.12966 23.8721 6.26571 25.3064 5.39139C25.4249 5.30591 25.5678 5.26065 25.714 5.26225C25.8602 5.26385 26.0021 5.31223 26.1187 5.40028C27.5402 6.26571 28.9676 7.12077 30.401 7.96546C30.5325 8.02946 30.6416 8.13162 30.7139 8.25855C30.7862 8.38547 30.8185 8.53125 30.8064 8.67677C30.7945 10.7663 30.7885 12.8572 30.8064 14.9467C30.8064 15.415 30.6356 15.5395 30.1991 15.5276C28.7038 15.5024 27.2026 15.5202 25.7029 15.5202ZM24.812 7.8395C24.0116 8.31815 23.3271 8.72864 22.6307 9.14505C22.5522 9.19039 22.4883 9.25714 22.4465 9.33746C22.4047 9.41778 22.3867 9.50835 22.3946 9.59852C22.3946 10.8315 22.3946 12.0644 22.3946 13.3033C22.3946 13.5997 22.5119 13.7227 22.8044 13.7182C23.3316 13.7108 23.8587 13.7078 24.3858 13.7182C24.7066 13.7182 24.8209 13.5804 24.8164 13.2736C24.8046 12.4838 24.8164 11.6954 24.8164 10.9026L24.812 7.8395ZM26.6295 10.8033C26.6295 11.6258 26.6295 12.4467 26.6295 13.2677C26.6295 13.5774 26.7482 13.7212 27.066 13.7123C27.5605 13.7034 28.0549 13.7004 28.5509 13.7123C28.9028 13.7212 29.0052 13.5448 28.9963 13.2247C28.9874 12.0392 28.9874 10.8562 28.9963 9.67558C29.004 9.54474 28.9725 9.41459 28.9059 9.30166C28.8393 9.18872 28.7405 9.0981 28.6221 9.04132C28.1069 8.74494 27.5961 8.44856 27.0972 8.12847C26.7542 7.90914 26.6116 7.93878 26.622 8.38335C26.6413 9.18358 26.6235 9.98974 26.625 10.7944L26.6295 10.8033Z" fill="#6D3C2C"/>
<path id="Vector_3" d="M26.5163 29.8147C26.105 29.8147 25.6952 29.8147 25.2839 29.8147C24.9632 29.8147 24.7998 29.708 24.8043 29.3583C24.828 27.7282 24.6113 28.0246 26.0976 27.9994C26.6396 27.989 27.1815 27.9994 27.7309 27.9994C27.8304 27.9994 27.9507 27.9697 28.0279 28.0142C28.5951 28.3669 28.2224 28.9256 28.3071 29.3849C28.3576 29.6561 28.2031 29.8147 27.9076 29.8117C27.4473 29.8117 26.9885 29.8117 26.5282 29.8117L26.5163 29.8147Z" fill="#6D3C2C"/>
<path id="Vector_4" d="M36.6578 28.0008C37.0676 28.0008 37.4789 28.0141 37.8888 28.0008C38.2347 27.9875 38.4085 28.1045 38.404 28.475C38.3877 30.0621 38.5688 29.7954 37.1345 29.8176C36.5598 29.8265 35.9852 29.8058 35.4105 29.8176C35.0245 29.8295 34.8893 29.6694 34.8968 29.2915C34.9265 27.7741 34.7171 28.026 36.1648 27.9993C36.3297 27.9978 36.493 28.0008 36.6578 28.0008Z" fill="#6D3C2C"/>
<path id="Vector_5" d="M26.5551 34.7183H27.743C27.841 34.7183 27.9628 34.6916 28.04 34.7375C28.5953 35.1006 28.2211 35.6563 28.3058 36.1202C28.3562 36.3988 28.181 36.5336 27.893 36.5321C27.0021 36.5321 26.1186 36.5321 25.2321 36.5321C24.9455 36.5321 24.8148 36.4062 24.8178 36.1142C24.8356 34.4308 24.6129 34.7538 26.123 34.7183C26.2596 34.7153 26.4081 34.7183 26.5551 34.7183Z" fill="#6D3C2C"/>
<path id="Vector_6" d="M36.63 36.5307H35.2936C35.0352 36.5307 34.9194 36.4121 34.8941 36.1454C34.7575 34.7361 34.7679 34.7183 36.1726 34.7183C36.7666 34.7183 37.3605 34.7257 37.947 34.7183C38.2588 34.7183 38.3925 34.8443 38.3925 35.1555C38.3851 36.8093 38.5618 36.504 37.114 36.5351C36.9492 36.5351 36.7844 36.5351 36.621 36.5351L36.63 36.5307Z" fill="#6D3C2C"/>
<path id="Vector_7" d="M36.6092 23.0957C36.183 23.0957 35.7554 23.0957 35.3278 23.0957C35.0516 23.0957 34.9001 22.9876 34.9031 22.6897C34.9179 20.9825 34.7026 21.3189 36.1979 21.2863C36.7918 21.2745 37.3858 21.2863 37.9723 21.2863C38.2574 21.2863 38.4044 21.4004 38.3999 21.6909C38.3999 21.7235 38.3999 21.7561 38.3999 21.7887C38.3895 23.321 38.5633 23.0765 37.1497 23.1002C36.97 23.1002 36.7889 23.1002 36.6077 23.1002L36.6092 23.0957Z" fill="#6D3C2C"/>
<path id="Vector_8" d="M26.5387 23.0987C26.1274 23.0987 25.7176 23.0884 25.3077 23.0987C24.9633 23.1091 24.7969 22.9861 24.8029 22.6141C24.8311 21.0389 24.6143 21.3086 26.0754 21.2804C26.6694 21.2701 27.2633 21.2804 27.8498 21.2804C28.1587 21.2804 28.3057 21.396 28.3042 21.7102C28.3042 23.3714 28.4735 23.0646 27.0317 23.0958C26.8668 23.1017 26.7035 23.0987 26.5387 23.0987Z" fill="#6D3C2C"/>
<path id="Vector_9" d="M13.059 47.4168C12.928 47.4094 12.7966 47.4094 12.6655 47.4168C12.3121 47.4494 12.1577 47.3057 12.1592 46.9426C12.1711 45.3925 12.033 45.7112 13.3827 45.6593C13.8208 45.643 14.0405 45.7734 13.9767 46.2357C13.9715 46.3177 13.9715 46.3998 13.9767 46.4817C13.9722 47.5294 14.0494 47.4079 13.059 47.4168Z" fill="#6D3C2C"/>
<path id="Vector_10" d="M34.9281 47.4153C34.7796 47.4153 34.6311 47.4049 34.4826 47.4153C34.1619 47.442 34.0371 47.2864 34.0371 46.9841C34.0475 45.4029 33.8426 45.6948 35.4582 45.6666C35.7269 45.6666 35.8502 45.7808 35.8412 46.0475C35.8412 46.1957 35.8412 46.3439 35.8412 46.4921C35.8472 47.5205 35.9318 47.4064 34.9281 47.4153Z" fill="#6D3C2C"/>
</g>
<defs>
<clipPath id="clip0_21_3073">
<rect width="50.6115" height="50.6115" fill="white" transform="translate(0.381348 0.17804)"/>
</clipPath>
</defs>
</svg>
