<svg width="50" height="61" viewBox="0 0 50 61" fill="none" xmlns="http://www.w3.org/2000/svg">
<g id="Layer_1" clip-path="url(#clip0_21_3057)">
<path id="Vector" d="M38.5061 0.847103C40.1506 1.44954 40.7776 2.34877 40.7776 4.07835V33.9545C40.786 34.1661 40.78 34.378 40.7597 34.5888C40.732 34.8204 40.6173 35.0335 40.4383 35.1859C40.2592 35.3383 40.0287 35.419 39.7923 35.4121C39.5546 35.4188 39.3233 35.3356 39.1458 35.1796C38.9683 35.0236 38.858 34.8065 38.8375 34.5729C38.8193 34.3224 38.8145 34.0712 38.8232 33.8203C38.8232 24.0164 38.8232 14.2126 38.8232 4.40872C38.8232 3.03601 38.5205 2.73391 37.1411 2.73391C26.221 2.73391 15.3015 2.73391 4.38266 2.73391C4.12895 2.72798 3.87514 2.73979 3.62312 2.76924C3.37565 2.78727 3.14302 2.8925 2.96772 3.06571C2.79242 3.23892 2.68615 3.46855 2.66833 3.71265C2.64266 3.92366 2.63129 4.13614 2.6343 4.34865C2.6343 17.8178 2.6343 31.2881 2.6343 44.7595C2.6343 44.915 2.6343 45.0687 2.64325 45.2224C2.71311 45.9609 3.07139 46.3018 3.81659 46.3124C4.77675 46.3248 5.73513 46.3124 6.6935 46.3124H20.1967C21.225 46.3124 21.748 46.6658 21.7337 47.3336C21.7176 47.9749 21.1963 48.3264 20.2146 48.3264C14.8143 48.3264 9.41337 48.3264 4.01185 48.3264C2.33514 48.3264 1.14568 47.5032 0.755168 46.1057C0.687342 45.8241 0.65842 45.5347 0.669184 45.2454C0.669184 31.4476 0.669184 17.6488 0.669184 3.84868C0.669184 2.35584 1.33915 1.47604 2.93883 0.845337L38.5061 0.847103Z" fill="#6D3C2C"/>
<path id="Vector_2" d="M32.0481 60.1259C30.3928 59.7726 28.8989 59.1172 27.6807 57.9105C26.6358 56.9098 25.8971 55.6396 25.549 54.2447C24.811 51.229 24.0712 48.2133 23.3797 45.187C22.8942 43.067 23.5284 41.2226 25.0367 39.6661C25.7264 38.9594 26.4232 38.2528 27.1577 37.585C27.37 37.4051 27.5374 37.1794 27.6471 36.9254C27.7567 36.6715 27.8056 36.396 27.79 36.1204C27.7625 32.3974 27.7625 28.6751 27.79 24.9533C27.8104 24.1852 28.0881 23.4454 28.5797 22.8493C29.0713 22.2533 29.7492 21.8345 30.5075 21.6584C31.0202 21.5439 31.5526 21.545 32.0649 21.6614C32.5772 21.7778 33.0563 22.0067 33.4665 22.331C33.8767 22.6552 34.2075 23.0666 34.4343 23.5343C34.6611 24.0021 34.778 24.5143 34.7763 25.0328C34.7996 28.6597 34.7763 32.285 34.7763 35.9119C34.7763 36.6557 34.7763 36.6433 35.5179 36.5055C36.8811 36.2529 38.0401 36.631 38.9215 37.6892C39.1508 37.963 39.303 38.0125 39.638 37.8429C41.2252 37.0461 42.7514 37.3359 43.9319 38.6538C44.1898 38.9435 44.3672 38.9683 44.7129 38.8022C45.2498 38.5276 45.8498 38.3953 46.4541 38.4181C47.0585 38.441 47.6464 38.6183 48.1604 38.9326C48.6744 39.247 49.0967 39.6876 49.3861 40.2114C49.6755 40.7351 49.8219 41.324 49.8111 41.9204C49.8308 45.3742 49.8237 48.8263 49.8111 52.2802C49.8197 54.0516 49.2212 55.774 48.1128 57.168C47.0043 58.562 45.4509 59.5458 43.7044 59.9599C43.4966 60.0111 43.2906 60.0712 43.0846 60.1259H32.0481ZM27.7721 39.8304C27.1935 40.3905 26.6973 40.8233 26.2548 41.3127C25.8209 41.7772 25.5116 42.3414 25.3552 42.9538C25.1988 43.5663 25.2001 44.2077 25.3591 44.8195C26.0124 47.6203 26.6764 50.4175 27.3511 53.2112C28.1483 56.4972 30.3552 58.2215 33.791 58.2268C36.2774 58.2268 38.7626 58.2268 41.2467 58.2268C41.8725 58.238 42.4975 58.1788 43.1097 58.0501C46.0188 57.3805 47.8138 55.0839 47.8532 51.948C47.8854 48.768 47.8639 45.5792 47.8532 42.3956C47.8493 42.1062 47.8121 41.8181 47.7421 41.537C47.666 41.2045 47.4753 40.9083 47.2025 40.6989C46.9298 40.4895 46.5918 40.3799 46.2463 40.3887C45.8804 40.4081 45.5354 40.5626 45.2798 40.8216C45.0242 41.0805 44.8768 41.4249 44.867 41.7861C44.8401 42.249 44.867 42.7136 44.8401 43.1747C44.7882 43.9309 44.4066 44.3337 43.7922 44.3231C43.1777 44.3125 42.8266 43.8726 42.8195 43.1235C42.8123 42.3744 42.8463 41.6554 42.8033 40.9257C42.7532 40.0424 42.0689 39.4046 41.2592 39.4241C40.4011 39.4453 39.8458 40.0495 39.8261 40.9964C39.8172 41.3621 39.8261 41.7296 39.8261 42.0953C39.81 42.8497 39.4051 43.3443 38.8122 43.3496C38.2193 43.3549 37.8001 42.8762 37.7876 42.113C37.7768 41.4063 37.8001 40.6837 37.775 39.9717C37.7428 39.0884 37.0674 38.3994 36.281 38.4047C35.4534 38.4047 34.8103 39.1114 34.7942 40.023C34.7942 40.4664 34.8067 40.9063 34.7799 41.3533C34.7458 41.9469 34.3714 42.3126 33.8305 42.332C33.2895 42.3515 32.8846 42.0335 32.7843 41.4487C32.7547 41.2191 32.7439 40.9875 32.7521 40.7561C32.7521 36.3383 32.7521 31.9216 32.7521 27.5061C32.7521 26.6581 32.7664 25.8083 32.7377 24.9603C32.729 24.6287 32.6031 24.3105 32.3816 24.0608C32.1601 23.8111 31.8571 23.6456 31.525 23.5929C31.1828 23.541 30.8329 23.6086 30.5359 23.7841C30.2389 23.9596 30.0134 24.2319 29.8984 24.554C29.7791 24.9218 29.7288 25.3079 29.7498 25.6935C29.7498 31.3469 29.7498 37.0002 29.7498 42.6536C29.7498 43.4115 29.3915 43.8319 28.7663 43.839C28.1411 43.8461 27.7918 43.4203 27.7864 42.6624C27.7667 41.7508 27.7721 40.8498 27.7721 39.8304Z" fill="#6D3C2C"/>
<path id="Vector_3" d="M25.7674 16.6198C23.2248 16.6198 20.6835 16.6198 18.1434 16.6198C17.9287 16.6312 17.7134 16.6176 17.5021 16.5792C17.2872 16.5429 17.0923 16.433 16.9517 16.2688C16.8111 16.1046 16.7338 15.8967 16.7336 15.6817C16.7121 15.4679 16.7669 15.2533 16.8885 15.075C17.0102 14.8967 17.191 14.7658 17.3999 14.7048C17.6821 14.6222 17.9771 14.5911 18.2705 14.6129H33.1638C33.4567 14.5935 33.7508 14.6215 34.0344 14.6959C34.2555 14.7503 34.4494 14.8812 34.5809 15.0647C34.7124 15.2482 34.7728 15.4722 34.751 15.6959C34.7241 16.1976 34.4088 16.5032 33.9091 16.5969C33.7155 16.6222 33.52 16.6299 33.3251 16.6198C30.8076 16.6222 28.2884 16.6222 25.7674 16.6198Z" fill="#6D3C2C"/>
<path id="Vector_4" d="M10.3117 9.71747C11.1805 9.71747 11.5961 10.0125 11.6499 10.5708C11.709 11.1714 11.3597 11.5548 10.636 11.6537C9.72955 11.7774 9.04704 12.1837 8.76938 13.09C8.64421 13.4713 8.64475 13.8818 8.77091 14.2627C8.89707 14.6436 9.14237 14.9752 9.47159 15.2101C9.73533 15.4304 10.0566 15.5732 10.3988 15.6219C10.7409 15.6707 11.0901 15.6234 11.4063 15.4857C11.7289 15.3664 12.0135 15.1644 12.2305 14.9004C12.4475 14.6364 12.589 14.32 12.6405 13.984C12.6405 13.9469 12.6405 13.908 12.653 13.8691C12.7605 13.0441 13.1743 12.606 13.787 12.6713C14.3996 12.7367 14.7847 13.3321 14.6826 14.1218C14.4104 16.1252 12.6441 17.664 10.6539 17.6339C9.66608 17.6095 8.72038 17.2344 7.99049 16.5775C7.26059 15.9206 6.79551 15.0261 6.68066 14.0582C6.45854 12.1148 7.80563 10.2704 9.78329 9.8005C9.95769 9.76294 10.1341 9.73522 10.3117 9.71747Z" fill="#6D3C2C"/>
<path id="Vector_5" d="M6.65186 35.4173C6.6626 33.2973 8.47545 31.4705 10.5409 31.49C11.1894 31.49 11.5978 31.8203 11.6444 32.3733C11.6909 32.9263 11.3703 33.3132 10.7326 33.4333C9.24932 33.7336 8.64563 34.3696 8.69758 35.5727C8.72354 36.0381 8.91912 36.4785 9.24829 36.8129C9.57746 37.1473 10.0181 37.3531 10.4889 37.3924C10.9814 37.4368 11.473 37.2985 11.8676 37.0044C12.2621 36.7104 12.5313 36.2818 12.6224 35.8024C12.6457 35.6699 12.6439 35.5321 12.669 35.3996C12.7872 34.7512 13.219 34.3891 13.785 34.4562C14.3511 34.5233 14.7201 34.9756 14.6807 35.6187C14.6559 36.2984 14.4495 36.9595 14.0824 37.5353C13.7153 38.1111 13.2005 38.581 12.5902 38.8976C9.95869 40.3622 6.65186 38.4029 6.65186 35.4173Z" fill="#6D3C2C"/>
<path id="Vector_6" d="M10.4588 20.6037C11.1754 20.6037 11.5874 20.8917 11.6501 21.4464C11.7164 22.0453 11.3742 22.4234 10.6523 22.5488C9.34461 22.7732 8.68181 23.4639 8.7033 24.5946C8.71283 25.0805 8.90509 25.5455 9.24274 25.8994C9.58039 26.2533 10.0393 26.4708 10.5305 26.5097C11.0331 26.5474 11.5313 26.3951 11.9242 26.0837C12.3171 25.7724 12.5752 25.3253 12.6461 24.8331C12.6568 24.7571 12.6568 24.6794 12.6676 24.6034C12.775 23.9074 13.1942 23.5134 13.7675 23.5646C14.3407 23.6159 14.7312 24.1176 14.6936 24.8208C14.6004 26.5291 13.2068 28.0891 11.4692 28.4212C10.5799 28.5938 9.65767 28.467 8.8502 28.0612C8.04273 27.6553 7.39677 26.9939 7.01585 26.1829C6.65376 25.3852 6.56755 24.4923 6.7705 23.6415C6.97345 22.7908 7.4543 22.0294 8.13903 21.4747C8.79218 20.9374 9.60872 20.6308 10.4588 20.6037Z" fill="#6D3C2C"/>
<path id="Vector_7" d="M23.7111 10.6626H29.3431C29.5972 10.6424 29.8527 10.6743 30.0937 10.7563C30.2905 10.8224 30.4605 10.949 30.5789 11.1176C30.6972 11.2861 30.7576 11.4877 30.7511 11.6926C30.7471 11.8872 30.6831 12.076 30.5676 12.2338C30.452 12.3916 30.2905 12.511 30.1044 12.5759C29.884 12.6556 29.649 12.6887 29.4148 12.6731C25.6207 12.6731 21.8266 12.6731 18.0325 12.6731C17.4664 12.6731 16.9577 12.5618 16.7785 11.9664C16.5564 11.2598 17.067 10.6768 17.9125 10.6697C19.8382 10.6538 21.7746 10.6626 23.7111 10.6626Z" fill="#6D3C2C"/>
<path id="Vector_8" d="M21.196 34.4491C20.1212 34.4491 19.0464 34.4491 17.9716 34.4491C17.1654 34.4491 16.7301 34.0958 16.7319 33.4562C16.7337 32.8167 17.1601 32.451 17.9698 32.4475C20.1385 32.4345 22.3078 32.4345 24.4777 32.4475C25.2462 32.4475 25.7317 32.8609 25.7317 33.458C25.7317 34.0551 25.2677 34.4473 24.4777 34.4526C23.3868 34.4544 22.2923 34.4491 21.196 34.4491Z" fill="#6D3C2C"/>
<path id="Vector_9" d="M21.1618 23.5611C20.087 23.5611 19.0122 23.5699 17.9374 23.5611C17.1689 23.5611 16.7443 23.2078 16.7318 22.593C16.7175 21.9517 17.1438 21.563 17.9392 21.5577C20.1282 21.5447 22.3172 21.5447 24.5063 21.5577C25.2712 21.5577 25.7459 21.9852 25.7298 22.5912C25.7136 23.1972 25.2551 23.5523 24.5045 23.5611C23.392 23.5699 22.2778 23.5611 21.1618 23.5611Z" fill="#6D3C2C"/>
<path id="Vector_10" d="M21.2067 27.5061C20.1122 27.5061 19.0177 27.5061 17.9249 27.5061C17.1833 27.5061 16.7677 27.1722 16.7337 26.5892C16.6979 25.9673 17.092 25.5292 17.8461 25.5292C20.1152 25.5009 22.38 25.5009 24.6407 25.5292C25.325 25.538 25.7549 26.0097 25.7299 26.5733C25.7048 27.1369 25.2623 27.5026 24.5458 27.5079C23.4316 27.5132 22.3191 27.5061 21.2067 27.5061Z" fill="#6D3C2C"/>
<path id="Vector_11" d="M20.177 38.3941C19.3978 38.3941 18.6167 38.3941 17.8375 38.3941C17.1586 38.3853 16.7627 38.0408 16.734 37.4578C16.7054 36.8748 17.0601 36.4508 17.7515 36.4349C19.3876 36.3972 21.0243 36.3972 22.6616 36.4349C23.3567 36.4525 23.7705 36.926 23.7257 37.4949C23.6809 38.0638 23.2528 38.3924 22.5756 38.3994C21.7767 38.4012 20.9831 38.3941 20.177 38.3941Z" fill="#6D3C2C"/>
</g>
<defs>
<clipPath id="clip0_21_3057">
<rect width="49.1655" height="59.2878" fill="white" transform="translate(0.658203 0.839966)"/>
</clipPath>
</defs>
</svg>
