<svg width="18" height="18" viewBox="0 0 18 18" fill="none" xmlns="http://www.w3.org/2000/svg">
<g id="Location">
<g id="Iconly/Two-tone/Location">
<g id="Location_2">
<path id="Path_33958" fill-rule="evenodd" clip-rule="evenodd" d="M3.1792 7.79349C3.19 4.61305 5.77702 2.04355 8.95746 2.05432C12.1379 2.06516 14.7074 4.65218 14.6966 7.83262V7.89784C14.6575 9.96523 13.5031 11.8761 12.0879 13.3696C11.2785 14.21 10.3747 14.9541 9.39442 15.587C9.1323 15.8137 8.74349 15.8137 8.48137 15.587C7.02 14.6358 5.7374 13.4349 4.69224 12.0391C3.76071 10.8221 3.23182 9.34481 3.1792 7.81305V7.79349Z" stroke="#6D3C2C" stroke-linecap="round" stroke-linejoin="round"/>
<path id="Ellipse_740" d="M8.93794 9.75002C9.95726 9.75002 10.7836 8.92369 10.7836 7.90437C10.7836 6.88504 9.95726 6.05872 8.93794 6.05872C7.91861 6.05872 7.09229 6.88504 7.09229 7.90437C7.09229 8.92369 7.91861 9.75002 8.93794 9.75002Z" stroke="#6D3C2C" stroke-linecap="round" stroke-linejoin="round"/>
</g>
</g>
</g>
</svg>
